<?xml version="1.0" encoding="UTF-8"?>
<svg version="1.1" xmlns="http://www.w3.org/2000/svg" width="64" height="64">
<path d="M0 0 C5.00106027 3.62576869 9.80306664 7.80005844 10.90234375 14.12890625 C11.1568413 16.3566314 11.358632 18.57498582 11.5 20.8125 C12.799375 20.85375 14.09875 20.895 15.4375 20.9375 C21.05591317 21.58441508 25.51068454 23.79267352 29.5 27.8125 C34.40118678 34.38418774 34.00842357 41.35645718 33.8125 49.25 C33.80283203 50.44560547 33.79316406 51.64121094 33.78320312 52.87304688 C33.66851779 61.64398221 33.66851779 61.64398221 32.5 62.8125 C28.32037486 63.12421981 24.12730106 63.09112021 19.9375 63.125 C18.76896484 63.15400391 17.60042969 63.18300781 16.39648438 63.21289062 C9.57115424 63.26293535 4.09969341 62.98877014 -1.5 58.8125 C-6.76772212 53.58476059 -8.27004451 48.05609784 -8.5 40.8125 C-10.74932227 40.6170375 -12.99950142 40.43141774 -15.25 40.25 C-16.50296875 40.14558594 -17.7559375 40.04117188 -19.046875 39.93359375 C-22.32443766 39.64839428 -22.32443766 39.64839428 -24.703125 40.41015625 C-27.18252973 40.96532731 -28.3247013 39.99383462 -30.5 38.8125 C-30.58742801 34.60429855 -30.64053641 30.39633224 -30.6875 26.1875 C-30.71263672 24.99769531 -30.73777344 23.80789062 -30.76367188 22.58203125 C-30.82463941 15.30657177 -30.71764539 10.27017136 -25.5625 4.73046875 C-24.881875 4.15941406 -24.20125 3.58835937 -23.5 3 C-22.819375 2.41605469 -22.13875 1.83210937 -21.4375 1.23046875 C-15.73238704 -2.94484577 -6.38494813 -2.16632169 0 0 Z " fill="#B2D3FF" transform="translate(30.5,1.1875)"/>
<path d="M0 0 C5.00106027 3.62576869 9.80306664 7.80005844 10.90234375 14.12890625 C11.15622146 16.35120569 11.33354093 18.58194848 11.5 20.8125 C8.53 21.8025 5.56 22.7925 2.5 23.8125 C2.438125 22.265625 2.37625 20.71875 2.3125 19.125 C1.92738366 15.18453431 1.63881295 13.99149565 -0.875 10.75 C-5.16625746 7.58264331 -9.29886716 7.2436261 -14.5 7.8125 C-18.36427775 9.49262076 -19.92572015 10.96348979 -21.5 14.8125 C-22.09269481 19.11531034 -21.96581833 22.76995422 -20.1875 26.75 C-18.06135446 29.34862232 -16.36379434 30.66830756 -13.01953125 31.2265625 C-12.12621094 31.29617187 -11.23289062 31.36578125 -10.3125 31.4375 C-9.41144531 31.51226562 -8.51039062 31.58703125 -7.58203125 31.6640625 C-6.89496094 31.71304688 -6.20789063 31.76203125 -5.5 31.8125 C-6.49 34.7825 -7.48 37.7525 -8.5 40.8125 C-9.46421875 40.72871094 -10.4284375 40.64492188 -11.421875 40.55859375 C-13.31679688 40.40583984 -13.31679688 40.40583984 -15.25 40.25 C-16.50296875 40.14558594 -17.7559375 40.04117188 -19.046875 39.93359375 C-22.32443766 39.64839428 -22.32443766 39.64839428 -24.703125 40.41015625 C-27.18252973 40.96532731 -28.3247013 39.99383462 -30.5 38.8125 C-30.58742801 34.60429855 -30.64053641 30.39633224 -30.6875 26.1875 C-30.71263672 24.99769531 -30.73777344 23.80789062 -30.76367188 22.58203125 C-30.82463941 15.30657177 -30.71764539 10.27017136 -25.5625 4.73046875 C-24.881875 4.15941406 -24.20125 3.58835937 -23.5 3 C-22.819375 2.41605469 -22.13875 1.83210937 -21.4375 1.23046875 C-15.73238704 -2.94484577 -6.38494813 -2.16632169 0 0 Z " fill="#FE8A72" transform="translate(30.5,1.1875)"/>
<path d="M0 0 C3.3543638 2.18423689 5.27606798 4.1042719 6.26171875 8.046875 C6.50400113 13.29354177 5.83929115 16.3708452 2.3125 20.375 C-0.90228801 23.1957909 -3.21905253 24.30745364 -7.5 24.5 C-11.84114621 24.12656807 -14.35285993 23.07959508 -17.3125 19.75 C-19.82703468 15.48777455 -20.00070285 11.59259809 -19.3125 6.75 C-17.70535226 3.59310266 -16.33811766 1.55584244 -13.5625 -0.625 C-8.66671343 -1.98494071 -4.66837905 -1.76165247 0 0 Z " fill="#FEFBFA" transform="translate(27.3125,9.25)"/>
<path d="M0 0 C-0.33 0.99 -0.66 1.98 -1 3 C-2.0725 3.515625 -3.145 4.03125 -4.25 4.5625 C-9.28861619 7.30516943 -11.34587422 11.64841658 -13 17 C-13.26935754 19.88485826 -13.25703195 22.61229104 -13.109375 25.50390625 C-12.98059901 28.4427583 -13.37955158 31.13042606 -14 34 C-12.948125 33.8453125 -12.948125 33.8453125 -11.875 33.6875 C-7.77207863 34.13346971 -5.9962163 36.25878083 -3 39 C-1.67553245 40.01171314 -0.34400833 41.01439389 1 42 C-6.0964242 42.46961631 -12.2626705 42.64748744 -18 38 C-22.49987564 33.17589751 -24.95241749 28.17252044 -25.23046875 21.55078125 C-24.62519476 14.85173178 -21.80883283 8.68707086 -16.76953125 4.18359375 C-11.70544286 0.79635582 -6.04358611 -0.46489124 0 0 Z " fill="#9EC6FE" transform="translate(47,22)"/>
<path d="M0 0 C1.2065625 0.0309375 1.2065625 0.0309375 2.4375 0.0625 C3.81298025 3.28299477 5.15899275 6.51501589 6.5 9.75 C7.08491211 11.11801758 7.08491211 11.11801758 7.68164062 12.51367188 C8.04580078 13.39990234 8.40996094 14.28613281 8.78515625 15.19921875 C9.12554932 16.01092529 9.46594238 16.82263184 9.81665039 17.65893555 C10.54347356 20.47276728 10.19990117 22.28718695 9.4375 25.0625 C8.1175 24.7325 6.7975 24.4025 5.4375 24.0625 C5.1075 22.7425 4.7775 21.4225 4.4375 20.0625 C2.97802295 20.12256078 1.51970728 20.2113689 0.0625 20.3125 C-0.74960937 20.35890625 -1.56171875 20.4053125 -2.3984375 20.453125 C-4.75088927 20.8547092 -4.75088927 20.8547092 -5.8515625 23.109375 C-6.08617187 23.75390625 -6.32078125 24.3984375 -6.5625 25.0625 C-7.8825 25.0625 -9.2025 25.0625 -10.5625 25.0625 C-11.07503046 19.29420266 -9.26711709 14.97743643 -7.125 9.75 C-6.79951172 8.92693359 -6.47402344 8.10386719 -6.13867188 7.25585938 C-3.26940799 0.07974166 -3.26940799 0.07974166 0 0 Z " fill="#FAFCFE" transform="translate(43.5625,30.9375)"/>
<path d="M0 0 C5.229364 4.37807219 8.97464246 9.00447069 9.75 15.875 C9.8325 17.23625 9.915 18.5975 10 20 C5.545 21.485 5.545 21.485 1 23 C0.938125 21.453125 0.87625 19.90625 0.8125 18.3125 C0.42738366 14.37203431 0.13881295 13.17899565 -2.375 9.9375 C-5.9153957 7.32435079 -8.40585568 6.87544718 -12.6875 6.9375 C-13.49574219 6.94652344 -14.30398437 6.95554687 -15.13671875 6.96484375 C-15.75160156 6.97644531 -16.36648437 6.98804688 -17 7 C-15.44313263 3.65204628 -14.12882002 2.0245306 -11 0 C-10.401875 -0.433125 -9.80375 -0.86625 -9.1875 -1.3125 C-5.64416156 -2.42612065 -3.37620881 -1.36232987 0 0 Z " fill="#FE9C89" transform="translate(32,2)"/>
<path d="M0 0 C2.875 1.5625 2.875 1.5625 5 4 C5.3125 7.75 5.3125 7.75 5 11 C3.35 10.67 1.7 10.34 0 10 C0.33 11.65 0.66 13.3 1 15 C-2.25 15.3125 -2.25 15.3125 -6 15 C-8.96135546 12.41830549 -9.86756104 10.81118865 -10.5 6.9375 C-10 4 -10 4 -8.375 1.625 C-5.26965639 -0.49970879 -3.6986604 -0.60386292 0 0 Z " fill="#FF9E8B" transform="translate(23,13)"/>
<path d="M0 0 C0.33 0.66 0.66 1.32 1 2 C0.5359375 3.0828125 0.5359375 3.0828125 0.0625 4.1875 C-1.91887264 9.43230993 -1.05277613 14.60452232 0 20 C-3.15617637 16.98104869 -4.17090274 15.13206265 -4.3125 10.75 C-4.28927685 5.95829075 -3.00157931 3.65817479 0 0 Z " fill="#ECE9EF" transform="translate(12,10)"/>
<path d="M0 0 C3.3 0 6.6 0 10 0 C9.34 1.98 8.68 3.96 8 6 C3.67574907 4.59754024 2.927027 3.90270266 0 0 Z " fill="#FEA08E" transform="translate(15,33)"/>
<path d="M0 0 C2.1385485 2.1385485 2.42655063 3.13275314 3 6 C1.35 6 -0.3 6 -2 6 C-1.34 4.02 -0.68 2.04 0 0 Z " fill="#BBD8FF" transform="translate(43,40)"/>
</svg>
